<mxfile host="app.diagrams.net" modified="2022-03-16T08:31:12.653Z" agent="5.0 (Windows NT 6.1; Win64; x64) AppleWebKit/537.36 (KHTML, like Gecko) Chrome/72.0.3626.121 Safari/537.36" etag="JroISWGnjPrSMbV2qqan" version="17.1.3" type="github" pages="2">
  <diagram id="LWpq9U14kZfVHlyQJsZM" name="Page-1">
    <mxGraphModel dx="1102" dy="622" grid="1" gridSize="10" guides="1" tooltips="1" connect="1" arrows="1" fold="1" page="1" pageScale="1" pageWidth="827" pageHeight="1169" math="0" shadow="0">
      <root>
        <mxCell id="0" />
        <mxCell id="1" parent="0" />
        <mxCell id="yiySqxCwrd8LdiWjAgHJ-89" value="IS_PROTOCOL_S" style="swimlane;fontStyle=0;childLayout=stackLayout;horizontal=1;startSize=26;fillColor=none;horizontalStack=0;resizeParent=1;resizeParentMax=0;resizeLast=0;collapsible=1;marginBottom=0;rounded=1;shadow=0;glass=0;labelBackgroundColor=none;sketch=0;fontFamily=Helvetica;fontSize=12;fontColor=default;strokeColor=default;" parent="1" vertex="1">
          <mxGeometry x="80" y="110" width="140" height="104" as="geometry" />
        </mxCell>
        <mxCell id="yiySqxCwrd8LdiWjAgHJ-90" value="stProcessList" style="text;strokeColor=#6c8ebf;fillColor=#dae8fc;align=center;verticalAlign=top;spacingLeft=4;spacingRight=4;overflow=hidden;rotatable=0;points=[[0,0.5],[1,0.5]];portConstraint=eastwest;rounded=1;shadow=0;glass=0;labelBackgroundColor=none;sketch=0;fontFamily=Helvetica;fontSize=12;" parent="yiySqxCwrd8LdiWjAgHJ-89" vertex="1">
          <mxGeometry y="26" width="140" height="26" as="geometry" />
        </mxCell>
        <mxCell id="yiySqxCwrd8LdiWjAgHJ-91" value="pstInstTrwHtb" style="text;strokeColor=#666666;fillColor=#f5f5f5;align=center;verticalAlign=top;spacingLeft=4;spacingRight=4;overflow=hidden;rotatable=0;points=[[0,0.5],[1,0.5]];portConstraint=eastwest;rounded=1;shadow=0;glass=0;labelBackgroundColor=none;sketch=0;fontFamily=Helvetica;fontSize=12;fontColor=#333333;" parent="yiySqxCwrd8LdiWjAgHJ-89" vertex="1">
          <mxGeometry y="52" width="140" height="26" as="geometry" />
        </mxCell>
        <mxCell id="yiySqxCwrd8LdiWjAgHJ-92" value="..." style="text;strokeColor=none;fillColor=none;align=center;verticalAlign=top;spacingLeft=4;spacingRight=4;overflow=hidden;rotatable=0;points=[[0,0.5],[1,0.5]];portConstraint=eastwest;rounded=1;shadow=0;glass=0;labelBackgroundColor=none;sketch=0;fontFamily=Helvetica;fontSize=12;fontColor=default;" parent="yiySqxCwrd8LdiWjAgHJ-89" vertex="1">
          <mxGeometry y="78" width="140" height="26" as="geometry" />
        </mxCell>
        <mxCell id="yiySqxCwrd8LdiWjAgHJ-93" value="" style="group;rounded=1;shadow=0;glass=0;labelBackgroundColor=none;sketch=0;strokeColor=#666666;fillColor=#f5f5f5;gradientDirection=radial;fontFamily=Helvetica;fontSize=12;fontColor=#333333;" parent="1" vertex="1" connectable="0">
          <mxGeometry x="360" y="160" width="360" height="20" as="geometry" />
        </mxCell>
        <mxCell id="yiySqxCwrd8LdiWjAgHJ-94" value="0" style="rounded=0;whiteSpace=wrap;html=1;shadow=0;glass=0;sketch=0;labelBackgroundColor=none;strokeColor=#666666;fontFamily=Helvetica;fontSize=12;fontColor=#333333;fillColor=#f5f5f5;" parent="yiySqxCwrd8LdiWjAgHJ-93" vertex="1">
          <mxGeometry width="60" height="20" as="geometry" />
        </mxCell>
        <mxCell id="yiySqxCwrd8LdiWjAgHJ-95" value="1" style="rounded=0;whiteSpace=wrap;html=1;shadow=0;glass=0;sketch=0;labelBackgroundColor=none;strokeColor=#666666;fontFamily=Helvetica;fontSize=12;fontColor=#333333;fillColor=#f5f5f5;" parent="yiySqxCwrd8LdiWjAgHJ-93" vertex="1">
          <mxGeometry x="60" width="60" height="20" as="geometry" />
        </mxCell>
        <mxCell id="yiySqxCwrd8LdiWjAgHJ-96" value="..." style="rounded=0;whiteSpace=wrap;html=1;shadow=0;glass=0;sketch=0;labelBackgroundColor=none;strokeColor=#666666;fontFamily=Helvetica;fontSize=12;fontColor=#333333;fillColor=#f5f5f5;" parent="yiySqxCwrd8LdiWjAgHJ-93" vertex="1">
          <mxGeometry x="120" width="60" height="20" as="geometry" />
        </mxCell>
        <mxCell id="yiySqxCwrd8LdiWjAgHJ-97" value="" style="rounded=0;whiteSpace=wrap;html=1;shadow=0;glass=0;sketch=0;labelBackgroundColor=none;strokeColor=#666666;fontFamily=Helvetica;fontSize=12;fontColor=#333333;fillColor=#f5f5f5;" parent="yiySqxCwrd8LdiWjAgHJ-93" vertex="1">
          <mxGeometry x="180" width="60" height="20" as="geometry" />
        </mxCell>
        <mxCell id="yiySqxCwrd8LdiWjAgHJ-98" value="" style="rounded=0;whiteSpace=wrap;html=1;shadow=0;glass=0;sketch=0;labelBackgroundColor=none;strokeColor=#666666;fontFamily=Helvetica;fontSize=12;fontColor=#333333;fillColor=#f5f5f5;" parent="yiySqxCwrd8LdiWjAgHJ-93" vertex="1">
          <mxGeometry x="240" width="60" height="20" as="geometry" />
        </mxCell>
        <mxCell id="yiySqxCwrd8LdiWjAgHJ-99" value="max" style="rounded=0;whiteSpace=wrap;html=1;shadow=0;glass=0;sketch=0;labelBackgroundColor=none;strokeColor=#666666;fontFamily=Helvetica;fontSize=12;fontColor=#333333;fillColor=#f5f5f5;" parent="yiySqxCwrd8LdiWjAgHJ-93" vertex="1">
          <mxGeometry x="300" width="60" height="20" as="geometry" />
        </mxCell>
        <mxCell id="yiySqxCwrd8LdiWjAgHJ-102" style="edgeStyle=orthogonalEdgeStyle;rounded=0;orthogonalLoop=1;jettySize=auto;html=1;entryX=0;entryY=0.75;entryDx=0;entryDy=0;fontFamily=Helvetica;fontSize=12;fontColor=default;exitX=1;exitY=0.5;exitDx=0;exitDy=0;" parent="1" source="yiySqxCwrd8LdiWjAgHJ-91" target="yiySqxCwrd8LdiWjAgHJ-94" edge="1">
          <mxGeometry relative="1" as="geometry" />
        </mxCell>
        <mxCell id="yiySqxCwrd8LdiWjAgHJ-103" value="IS_INSTANCE_S" style="swimlane;fontStyle=0;childLayout=stackLayout;horizontal=1;startSize=26;fillColor=none;horizontalStack=0;resizeParent=1;resizeParentMax=0;resizeLast=0;collapsible=1;marginBottom=0;rounded=1;shadow=0;glass=0;labelBackgroundColor=none;sketch=0;fontFamily=Helvetica;fontSize=12;fontColor=default;strokeColor=default;" parent="1" vertex="1">
          <mxGeometry x="320" y="240" width="140" height="104" as="geometry" />
        </mxCell>
        <mxCell id="yiySqxCwrd8LdiWjAgHJ-104" value="stHashNode" style="text;strokeColor=#666666;fillColor=#f5f5f5;align=center;verticalAlign=top;spacingLeft=4;spacingRight=4;overflow=hidden;rotatable=0;points=[[0,0.5],[1,0.5]];portConstraint=eastwest;rounded=1;shadow=0;glass=0;labelBackgroundColor=none;sketch=0;fontFamily=Helvetica;fontSize=12;fontColor=#333333;" parent="yiySqxCwrd8LdiWjAgHJ-103" vertex="1">
          <mxGeometry y="26" width="140" height="26" as="geometry" />
        </mxCell>
        <mxCell id="yiySqxCwrd8LdiWjAgHJ-105" value="stProcessList" style="text;strokeColor=#d6b656;fillColor=#fff2cc;align=center;verticalAlign=top;spacingLeft=4;spacingRight=4;overflow=hidden;rotatable=0;points=[[0,0.5],[1,0.5]];portConstraint=eastwest;rounded=1;shadow=0;glass=0;labelBackgroundColor=none;sketch=0;fontFamily=Helvetica;fontSize=12;" parent="yiySqxCwrd8LdiWjAgHJ-103" vertex="1">
          <mxGeometry y="52" width="140" height="26" as="geometry" />
        </mxCell>
        <mxCell id="yiySqxCwrd8LdiWjAgHJ-106" value="..." style="text;strokeColor=none;fillColor=none;align=center;verticalAlign=top;spacingLeft=4;spacingRight=4;overflow=hidden;rotatable=0;points=[[0,0.5],[1,0.5]];portConstraint=eastwest;rounded=1;shadow=0;glass=0;labelBackgroundColor=none;sketch=0;fontFamily=Helvetica;fontSize=12;fontColor=default;" parent="yiySqxCwrd8LdiWjAgHJ-103" vertex="1">
          <mxGeometry y="78" width="140" height="26" as="geometry" />
        </mxCell>
        <mxCell id="yiySqxCwrd8LdiWjAgHJ-111" style="edgeStyle=orthogonalEdgeStyle;rounded=0;orthogonalLoop=1;jettySize=auto;html=1;entryX=0;entryY=0.5;entryDx=0;entryDy=0;fontFamily=Helvetica;fontSize=12;fontColor=default;" parent="1" source="yiySqxCwrd8LdiWjAgHJ-104" target="yiySqxCwrd8LdiWjAgHJ-129" edge="1">
          <mxGeometry relative="1" as="geometry">
            <mxPoint x="520" y="279" as="targetPoint" />
          </mxGeometry>
        </mxCell>
        <mxCell id="yiySqxCwrd8LdiWjAgHJ-112" style="edgeStyle=orthogonalEdgeStyle;rounded=0;orthogonalLoop=1;jettySize=auto;html=1;entryX=0.5;entryY=0;entryDx=0;entryDy=0;fontFamily=Helvetica;fontSize=12;fontColor=default;" parent="1" source="yiySqxCwrd8LdiWjAgHJ-94" target="yiySqxCwrd8LdiWjAgHJ-103" edge="1">
          <mxGeometry relative="1" as="geometry" />
        </mxCell>
        <mxCell id="yiySqxCwrd8LdiWjAgHJ-114" value="IS_PROC_NODE_S" style="swimlane;fontStyle=0;childLayout=stackLayout;horizontal=1;startSize=26;fillColor=#f5f5f5;horizontalStack=0;resizeParent=1;resizeParentMax=0;resizeLast=0;collapsible=1;marginBottom=0;rounded=1;shadow=0;glass=0;labelBackgroundColor=none;sketch=0;fontFamily=Helvetica;fontSize=12;fontColor=#333333;strokeColor=#666666;" parent="1" vertex="1">
          <mxGeometry x="500" y="390" width="140" height="130" as="geometry" />
        </mxCell>
        <mxCell id="yiySqxCwrd8LdiWjAgHJ-115" value="stNodeInfoProto" style="text;strokeColor=#6c8ebf;fillColor=#dae8fc;align=center;verticalAlign=top;spacingLeft=4;spacingRight=4;overflow=hidden;rotatable=0;points=[[0,0.5],[1,0.5]];portConstraint=eastwest;rounded=1;shadow=0;glass=0;labelBackgroundColor=none;sketch=0;fontFamily=Helvetica;fontSize=12;" parent="yiySqxCwrd8LdiWjAgHJ-114" vertex="1">
          <mxGeometry y="26" width="140" height="26" as="geometry" />
        </mxCell>
        <mxCell id="yiySqxCwrd8LdiWjAgHJ-116" value="stNodeInInst" style="text;strokeColor=#d6b656;fillColor=#fff2cc;align=center;verticalAlign=top;spacingLeft=4;spacingRight=4;overflow=hidden;rotatable=0;points=[[0,0.5],[1,0.5]];portConstraint=eastwest;rounded=1;shadow=0;glass=0;labelBackgroundColor=none;sketch=0;fontFamily=Helvetica;fontSize=12;" parent="yiySqxCwrd8LdiWjAgHJ-114" vertex="1">
          <mxGeometry y="52" width="140" height="26" as="geometry" />
        </mxCell>
        <mxCell id="yiySqxCwrd8LdiWjAgHJ-122" value="uiSysIndex" style="text;strokeColor=#b85450;fillColor=#f8cecc;align=center;verticalAlign=top;spacingLeft=4;spacingRight=4;overflow=hidden;rotatable=0;points=[[0,0.5],[1,0.5]];portConstraint=eastwest;rounded=1;shadow=0;glass=0;labelBackgroundColor=none;sketch=0;fontFamily=Helvetica;fontSize=12;" parent="yiySqxCwrd8LdiWjAgHJ-114" vertex="1">
          <mxGeometry y="78" width="140" height="26" as="geometry" />
        </mxCell>
        <mxCell id="yiySqxCwrd8LdiWjAgHJ-117" value="..." style="text;strokeColor=none;fillColor=none;align=center;verticalAlign=top;spacingLeft=4;spacingRight=4;overflow=hidden;rotatable=0;points=[[0,0.5],[1,0.5]];portConstraint=eastwest;rounded=1;shadow=0;glass=0;labelBackgroundColor=none;sketch=0;fontFamily=Helvetica;fontSize=12;fontColor=default;" parent="yiySqxCwrd8LdiWjAgHJ-114" vertex="1">
          <mxGeometry y="104" width="140" height="26" as="geometry" />
        </mxCell>
        <mxCell id="yiySqxCwrd8LdiWjAgHJ-128" value="IS_INSTANCE_S" style="swimlane;fontStyle=0;childLayout=stackLayout;horizontal=1;startSize=26;fillColor=none;horizontalStack=0;resizeParent=1;resizeParentMax=0;resizeLast=0;collapsible=1;marginBottom=0;rounded=1;shadow=0;glass=0;labelBackgroundColor=none;sketch=0;fontFamily=Helvetica;fontSize=12;fontColor=default;strokeColor=default;" parent="1" vertex="1">
          <mxGeometry x="540" y="240" width="140" height="104" as="geometry" />
        </mxCell>
        <mxCell id="yiySqxCwrd8LdiWjAgHJ-129" value="stHashNode" style="text;strokeColor=#666666;fillColor=#f5f5f5;align=center;verticalAlign=top;spacingLeft=4;spacingRight=4;overflow=hidden;rotatable=0;points=[[0,0.5],[1,0.5]];portConstraint=eastwest;rounded=1;shadow=0;glass=0;labelBackgroundColor=none;sketch=0;fontFamily=Helvetica;fontSize=12;fontColor=#333333;" parent="yiySqxCwrd8LdiWjAgHJ-128" vertex="1">
          <mxGeometry y="26" width="140" height="26" as="geometry" />
        </mxCell>
        <mxCell id="yiySqxCwrd8LdiWjAgHJ-130" value="stProcessList" style="text;strokeColor=#d6b656;fillColor=#fff2cc;align=center;verticalAlign=top;spacingLeft=4;spacingRight=4;overflow=hidden;rotatable=0;points=[[0,0.5],[1,0.5]];portConstraint=eastwest;rounded=1;shadow=0;glass=0;labelBackgroundColor=none;sketch=0;fontFamily=Helvetica;fontSize=12;" parent="yiySqxCwrd8LdiWjAgHJ-128" vertex="1">
          <mxGeometry y="52" width="140" height="26" as="geometry" />
        </mxCell>
        <mxCell id="yiySqxCwrd8LdiWjAgHJ-131" value="..." style="text;strokeColor=none;fillColor=none;align=center;verticalAlign=top;spacingLeft=4;spacingRight=4;overflow=hidden;rotatable=0;points=[[0,0.5],[1,0.5]];portConstraint=eastwest;rounded=1;shadow=0;glass=0;labelBackgroundColor=none;sketch=0;fontFamily=Helvetica;fontSize=12;fontColor=default;" parent="yiySqxCwrd8LdiWjAgHJ-128" vertex="1">
          <mxGeometry y="78" width="140" height="26" as="geometry" />
        </mxCell>
        <mxCell id="yiySqxCwrd8LdiWjAgHJ-142" style="edgeStyle=orthogonalEdgeStyle;rounded=0;orthogonalLoop=1;jettySize=auto;html=1;exitX=1;exitY=0.5;exitDx=0;exitDy=0;fontFamily=Helvetica;fontSize=12;fontColor=default;" parent="1" source="yiySqxCwrd8LdiWjAgHJ-132" edge="1">
          <mxGeometry relative="1" as="geometry">
            <mxPoint x="820" y="455" as="targetPoint" />
          </mxGeometry>
        </mxCell>
        <mxCell id="yiySqxCwrd8LdiWjAgHJ-132" value="IS_PROC_NODE_S" style="swimlane;fontStyle=0;childLayout=stackLayout;horizontal=1;startSize=26;fillColor=#f5f5f5;horizontalStack=0;resizeParent=1;resizeParentMax=0;resizeLast=0;collapsible=1;marginBottom=0;rounded=1;shadow=0;glass=0;labelBackgroundColor=none;sketch=0;fontFamily=Helvetica;fontSize=12;fontColor=#333333;strokeColor=#666666;" parent="1" vertex="1">
          <mxGeometry x="660" y="390" width="140" height="130" as="geometry" />
        </mxCell>
        <mxCell id="yiySqxCwrd8LdiWjAgHJ-133" value="stNodeInfoProto" style="text;strokeColor=#6c8ebf;fillColor=#dae8fc;align=center;verticalAlign=top;spacingLeft=4;spacingRight=4;overflow=hidden;rotatable=0;points=[[0,0.5],[1,0.5]];portConstraint=eastwest;rounded=1;shadow=0;glass=0;labelBackgroundColor=none;sketch=0;fontFamily=Helvetica;fontSize=12;" parent="yiySqxCwrd8LdiWjAgHJ-132" vertex="1">
          <mxGeometry y="26" width="140" height="26" as="geometry" />
        </mxCell>
        <mxCell id="yiySqxCwrd8LdiWjAgHJ-134" value="stNodeInInst" style="text;strokeColor=#d6b656;fillColor=#fff2cc;align=center;verticalAlign=top;spacingLeft=4;spacingRight=4;overflow=hidden;rotatable=0;points=[[0,0.5],[1,0.5]];portConstraint=eastwest;rounded=1;shadow=0;glass=0;labelBackgroundColor=none;sketch=0;fontFamily=Helvetica;fontSize=12;" parent="yiySqxCwrd8LdiWjAgHJ-132" vertex="1">
          <mxGeometry y="52" width="140" height="26" as="geometry" />
        </mxCell>
        <mxCell id="yiySqxCwrd8LdiWjAgHJ-135" value="uiSysIndex" style="text;strokeColor=#b85450;fillColor=#f8cecc;align=center;verticalAlign=top;spacingLeft=4;spacingRight=4;overflow=hidden;rotatable=0;points=[[0,0.5],[1,0.5]];portConstraint=eastwest;rounded=1;shadow=0;glass=0;labelBackgroundColor=none;sketch=0;fontFamily=Helvetica;fontSize=12;" parent="yiySqxCwrd8LdiWjAgHJ-132" vertex="1">
          <mxGeometry y="78" width="140" height="26" as="geometry" />
        </mxCell>
        <mxCell id="yiySqxCwrd8LdiWjAgHJ-136" value="..." style="text;strokeColor=none;fillColor=none;align=center;verticalAlign=top;spacingLeft=4;spacingRight=4;overflow=hidden;rotatable=0;points=[[0,0.5],[1,0.5]];portConstraint=eastwest;rounded=1;shadow=0;glass=0;labelBackgroundColor=none;sketch=0;fontFamily=Helvetica;fontSize=12;fontColor=default;" parent="yiySqxCwrd8LdiWjAgHJ-132" vertex="1">
          <mxGeometry y="104" width="140" height="26" as="geometry" />
        </mxCell>
        <mxCell id="yiySqxCwrd8LdiWjAgHJ-137" style="edgeStyle=orthogonalEdgeStyle;rounded=0;orthogonalLoop=1;jettySize=auto;html=1;exitX=1;exitY=0.5;exitDx=0;exitDy=0;entryX=0;entryY=0.5;entryDx=0;entryDy=0;fontFamily=Helvetica;fontSize=12;fontColor=default;" parent="1" source="yiySqxCwrd8LdiWjAgHJ-105" target="yiySqxCwrd8LdiWjAgHJ-114" edge="1">
          <mxGeometry relative="1" as="geometry" />
        </mxCell>
        <mxCell id="yiySqxCwrd8LdiWjAgHJ-138" style="edgeStyle=orthogonalEdgeStyle;rounded=0;orthogonalLoop=1;jettySize=auto;html=1;exitX=1;exitY=0.5;exitDx=0;exitDy=0;entryX=0;entryY=0.5;entryDx=0;entryDy=0;fontFamily=Helvetica;fontSize=12;fontColor=default;" parent="1" source="yiySqxCwrd8LdiWjAgHJ-116" target="yiySqxCwrd8LdiWjAgHJ-134" edge="1">
          <mxGeometry relative="1" as="geometry" />
        </mxCell>
        <mxCell id="yiySqxCwrd8LdiWjAgHJ-139" style="edgeStyle=orthogonalEdgeStyle;rounded=0;orthogonalLoop=1;jettySize=auto;html=1;exitX=1;exitY=0.5;exitDx=0;exitDy=0;entryX=0;entryY=0.5;entryDx=0;entryDy=0;fontFamily=Helvetica;fontSize=12;fontColor=default;" parent="1" source="yiySqxCwrd8LdiWjAgHJ-90" target="yiySqxCwrd8LdiWjAgHJ-115" edge="1">
          <mxGeometry relative="1" as="geometry">
            <Array as="points">
              <mxPoint x="290" y="149" />
              <mxPoint x="290" y="429" />
            </Array>
          </mxGeometry>
        </mxCell>
        <mxCell id="yiySqxCwrd8LdiWjAgHJ-140" style="edgeStyle=orthogonalEdgeStyle;rounded=0;orthogonalLoop=1;jettySize=auto;html=1;exitX=1;exitY=0.5;exitDx=0;exitDy=0;fontFamily=Helvetica;fontSize=12;fontColor=default;entryX=0;entryY=0.5;entryDx=0;entryDy=0;" parent="1" source="yiySqxCwrd8LdiWjAgHJ-115" target="yiySqxCwrd8LdiWjAgHJ-133" edge="1">
          <mxGeometry relative="1" as="geometry">
            <mxPoint x="640" y="429" as="targetPoint" />
          </mxGeometry>
        </mxCell>
        <mxCell id="yiySqxCwrd8LdiWjAgHJ-141" style="edgeStyle=orthogonalEdgeStyle;rounded=0;orthogonalLoop=1;jettySize=auto;html=1;exitX=1;exitY=0.5;exitDx=0;exitDy=0;fontFamily=Helvetica;fontSize=12;fontColor=default;" parent="1" source="yiySqxCwrd8LdiWjAgHJ-133" edge="1">
          <mxGeometry relative="1" as="geometry">
            <mxPoint x="820" y="429" as="targetPoint" />
          </mxGeometry>
        </mxCell>
      </root>
    </mxGraphModel>
  </diagram>
  <diagram id="b6auTSF-8PuJxcFgLXc4" name="Page-2">
    <mxGraphModel dx="1837" dy="1037" grid="1" gridSize="10" guides="1" tooltips="1" connect="1" arrows="1" fold="1" page="1" pageScale="1" pageWidth="1169" pageHeight="827" math="0" shadow="1">
      <root>
        <mxCell id="IERcaBC9esAp2wqh-j8_-0" />
        <mxCell id="IERcaBC9esAp2wqh-j8_-1" parent="IERcaBC9esAp2wqh-j8_-0" />
        <mxCell id="IyjPEtuGOCATa7LigKWc-0" value="EIGTP_PROTOCOL_S" style="swimlane;fontStyle=0;childLayout=stackLayout;horizontal=1;startSize=26;fillColor=none;horizontalStack=0;resizeParent=1;resizeParentMax=0;resizeLast=0;collapsible=1;marginBottom=0;rounded=1;shadow=0;glass=0;labelBackgroundColor=none;sketch=0;fontFamily=Helvetica;fontSize=12;fontColor=default;strokeColor=default;" parent="IERcaBC9esAp2wqh-j8_-1" vertex="1">
          <mxGeometry x="34" y="60" width="140" height="156" as="geometry" />
        </mxCell>
        <mxCell id="IyjPEtuGOCATa7LigKWc-1" value="pstInstanceHtb" style="text;strokeColor=#666666;fillColor=#f5f5f5;align=center;verticalAlign=top;spacingLeft=4;spacingRight=4;overflow=hidden;rotatable=0;points=[[0,0.5],[1,0.5]];portConstraint=eastwest;rounded=1;shadow=0;glass=0;labelBackgroundColor=none;sketch=0;fontFamily=Helvetica;fontSize=12;fontColor=#333333;" parent="IyjPEtuGOCATa7LigKWc-0" vertex="1">
          <mxGeometry y="26" width="140" height="26" as="geometry" />
        </mxCell>
        <mxCell id="IyjPEtuGOCATa7LigKWc-2" value="pstProcessTbl" style="text;strokeColor=#6c8ebf;fillColor=#dae8fc;align=center;verticalAlign=top;spacingLeft=4;spacingRight=4;overflow=hidden;rotatable=0;points=[[0,0.5],[1,0.5]];portConstraint=eastwest;rounded=1;shadow=0;glass=0;labelBackgroundColor=none;sketch=0;fontFamily=Helvetica;fontSize=12;" parent="IyjPEtuGOCATa7LigKWc-0" vertex="1">
          <mxGeometry y="52" width="140" height="26" as="geometry" />
        </mxCell>
        <mxCell id="IyjPEtuGOCATa7LigKWc-4" value="pstInactivePhyIfTbl" style="text;strokeColor=#82b366;fillColor=#d5e8d4;align=center;verticalAlign=top;spacingLeft=4;spacingRight=4;overflow=hidden;rotatable=0;points=[[0,0.5],[1,0.5]];portConstraint=eastwest;rounded=1;shadow=0;glass=0;labelBackgroundColor=none;sketch=0;fontFamily=Helvetica;fontSize=12;" parent="IyjPEtuGOCATa7LigKWc-0" vertex="1">
          <mxGeometry y="78" width="140" height="26" as="geometry" />
        </mxCell>
        <mxCell id="IyjPEtuGOCATa7LigKWc-5" value="pstPolicyNodeTbl" style="text;strokeColor=#d79b00;fillColor=#ffe6cc;align=center;verticalAlign=top;spacingLeft=4;spacingRight=4;overflow=hidden;rotatable=0;points=[[0,0.5],[1,0.5]];portConstraint=eastwest;rounded=1;shadow=0;glass=0;labelBackgroundColor=none;sketch=0;fontFamily=Helvetica;fontSize=12;" parent="IyjPEtuGOCATa7LigKWc-0" vertex="1">
          <mxGeometry y="104" width="140" height="26" as="geometry" />
        </mxCell>
        <mxCell id="IyjPEtuGOCATa7LigKWc-3" value="..." style="text;strokeColor=none;fillColor=none;align=center;verticalAlign=top;spacingLeft=4;spacingRight=4;overflow=hidden;rotatable=0;points=[[0,0.5],[1,0.5]];portConstraint=eastwest;rounded=1;shadow=0;glass=0;labelBackgroundColor=none;sketch=0;fontFamily=Helvetica;fontSize=12;fontColor=default;" parent="IyjPEtuGOCATa7LigKWc-0" vertex="1">
          <mxGeometry y="130" width="140" height="26" as="geometry" />
        </mxCell>
        <mxCell id="IyjPEtuGOCATa7LigKWc-6" value="EIGRP_PROC_S" style="swimlane;fontStyle=0;childLayout=stackLayout;horizontal=1;startSize=26;horizontalStack=0;resizeParent=1;resizeParentMax=0;resizeLast=0;collapsible=1;marginBottom=0;rounded=1;shadow=0;glass=0;labelBackgroundColor=none;sketch=0;fontFamily=Helvetica;fontSize=12;" parent="IERcaBC9esAp2wqh-j8_-1" vertex="1">
          <mxGeometry x="244" y="380" width="140" height="130" as="geometry" />
        </mxCell>
        <mxCell id="IyjPEtuGOCATa7LigKWc-7" value="stHashNodeInProto" style="text;strokeColor=#6c8ebf;fillColor=#dae8fc;align=center;verticalAlign=top;spacingLeft=4;spacingRight=4;overflow=hidden;rotatable=0;points=[[0,0.5],[1,0.5]];portConstraint=eastwest;rounded=1;shadow=0;glass=0;labelBackgroundColor=none;sketch=0;fontFamily=Helvetica;fontSize=12;" parent="IyjPEtuGOCATa7LigKWc-6" vertex="1">
          <mxGeometry y="26" width="140" height="26" as="geometry" />
        </mxCell>
        <mxCell id="IyjPEtuGOCATa7LigKWc-56" value="usAsNumber" style="text;strokeColor=#b85450;fillColor=#f8cecc;align=center;verticalAlign=top;spacingLeft=4;spacingRight=4;overflow=hidden;rotatable=0;points=[[0,0.5],[1,0.5]];portConstraint=eastwest;rounded=1;shadow=0;glass=0;labelBackgroundColor=none;sketch=0;fontFamily=Helvetica;fontSize=12;" parent="IyjPEtuGOCATa7LigKWc-6" vertex="1">
          <mxGeometry y="52" width="140" height="26" as="geometry" />
        </mxCell>
        <mxCell id="IyjPEtuGOCATa7LigKWc-23" value="astFilterPolicyImport[0]" style="text;strokeColor=default;fillColor=default;align=center;verticalAlign=top;spacingLeft=4;spacingRight=4;overflow=hidden;rotatable=0;points=[[0,0.5],[1,0.5]];portConstraint=eastwest;rounded=1;shadow=0;glass=0;labelBackgroundColor=none;sketch=0;fontFamily=Helvetica;fontSize=12;fontColor=default;" parent="IyjPEtuGOCATa7LigKWc-6" vertex="1">
          <mxGeometry y="78" width="140" height="26" as="geometry" />
        </mxCell>
        <mxCell id="IyjPEtuGOCATa7LigKWc-9" value="..." style="text;strokeColor=none;fillColor=none;align=center;verticalAlign=top;spacingLeft=4;spacingRight=4;overflow=hidden;rotatable=0;points=[[0,0.5],[1,0.5]];portConstraint=eastwest;rounded=1;shadow=0;glass=0;labelBackgroundColor=none;sketch=0;fontFamily=Helvetica;fontSize=12;fontColor=default;" parent="IyjPEtuGOCATa7LigKWc-6" vertex="1">
          <mxGeometry y="104" width="140" height="26" as="geometry" />
        </mxCell>
        <mxCell id="IyjPEtuGOCATa7LigKWc-11" value="" style="group;rounded=1;shadow=0;glass=0;labelBackgroundColor=none;sketch=0;strokeColor=#6c8ebf;fillColor=#dae8fc;gradientDirection=radial;" parent="IERcaBC9esAp2wqh-j8_-1" vertex="1" connectable="0">
          <mxGeometry x="284" y="300" width="360" height="20" as="geometry" />
        </mxCell>
        <mxCell id="IyjPEtuGOCATa7LigKWc-12" value="0" style="rounded=0;whiteSpace=wrap;html=1;shadow=0;glass=0;sketch=0;labelBackgroundColor=none;strokeColor=#6c8ebf;fillColor=#dae8fc;" parent="IyjPEtuGOCATa7LigKWc-11" vertex="1">
          <mxGeometry width="60" height="20" as="geometry" />
        </mxCell>
        <mxCell id="IyjPEtuGOCATa7LigKWc-13" value="1" style="rounded=0;whiteSpace=wrap;html=1;shadow=0;glass=0;sketch=0;labelBackgroundColor=none;strokeColor=#6c8ebf;fillColor=#dae8fc;" parent="IyjPEtuGOCATa7LigKWc-11" vertex="1">
          <mxGeometry x="60" width="60" height="20" as="geometry" />
        </mxCell>
        <mxCell id="IyjPEtuGOCATa7LigKWc-14" value="..." style="rounded=0;whiteSpace=wrap;html=1;shadow=0;glass=0;sketch=0;labelBackgroundColor=none;strokeColor=#6c8ebf;fillColor=#dae8fc;" parent="IyjPEtuGOCATa7LigKWc-11" vertex="1">
          <mxGeometry x="120" width="60" height="20" as="geometry" />
        </mxCell>
        <mxCell id="IyjPEtuGOCATa7LigKWc-15" value="" style="rounded=0;whiteSpace=wrap;html=1;shadow=0;glass=0;sketch=0;labelBackgroundColor=none;strokeColor=#6c8ebf;fillColor=#dae8fc;" parent="IyjPEtuGOCATa7LigKWc-11" vertex="1">
          <mxGeometry x="180" width="60" height="20" as="geometry" />
        </mxCell>
        <mxCell id="IyjPEtuGOCATa7LigKWc-16" value="" style="rounded=0;whiteSpace=wrap;html=1;shadow=0;glass=0;sketch=0;labelBackgroundColor=none;strokeColor=#6c8ebf;fillColor=#dae8fc;" parent="IyjPEtuGOCATa7LigKWc-11" vertex="1">
          <mxGeometry x="240" width="60" height="20" as="geometry" />
        </mxCell>
        <mxCell id="IyjPEtuGOCATa7LigKWc-17" value="max" style="rounded=0;whiteSpace=wrap;html=1;shadow=0;glass=0;sketch=0;labelBackgroundColor=none;strokeColor=#6c8ebf;fillColor=#dae8fc;" parent="IyjPEtuGOCATa7LigKWc-11" vertex="1">
          <mxGeometry x="300" width="60" height="20" as="geometry" />
        </mxCell>
        <mxCell id="IyjPEtuGOCATa7LigKWc-18" style="edgeStyle=orthogonalEdgeStyle;rounded=0;orthogonalLoop=1;jettySize=auto;html=1;entryX=0;entryY=0.5;entryDx=0;entryDy=0;" parent="IERcaBC9esAp2wqh-j8_-1" source="IyjPEtuGOCATa7LigKWc-2" target="IyjPEtuGOCATa7LigKWc-12" edge="1">
          <mxGeometry relative="1" as="geometry">
            <Array as="points">
              <mxPoint x="204" y="125" />
              <mxPoint x="204" y="310" />
            </Array>
          </mxGeometry>
        </mxCell>
        <mxCell id="IyjPEtuGOCATa7LigKWc-19" style="edgeStyle=orthogonalEdgeStyle;rounded=0;orthogonalLoop=1;jettySize=auto;html=1;exitX=0.5;exitY=1;exitDx=0;exitDy=0;entryX=0.5;entryY=0;entryDx=0;entryDy=0;startArrow=none;" parent="IERcaBC9esAp2wqh-j8_-1" source="IyjPEtuGOCATa7LigKWc-57" target="IyjPEtuGOCATa7LigKWc-6" edge="1">
          <mxGeometry relative="1" as="geometry" />
        </mxCell>
        <mxCell id="IyjPEtuGOCATa7LigKWc-24" value="EIGRP_PROC_S" style="swimlane;fontStyle=0;childLayout=stackLayout;horizontal=1;startSize=26;horizontalStack=0;resizeParent=1;resizeParentMax=0;resizeLast=0;collapsible=1;marginBottom=0;rounded=1;shadow=0;glass=0;labelBackgroundColor=none;sketch=0;fontFamily=Helvetica;fontSize=12;" parent="IERcaBC9esAp2wqh-j8_-1" vertex="1">
          <mxGeometry x="434" y="380" width="140" height="130" as="geometry" />
        </mxCell>
        <mxCell id="IyjPEtuGOCATa7LigKWc-25" value="stHashNodeInProto" style="text;strokeColor=#6c8ebf;fillColor=#dae8fc;align=center;verticalAlign=top;spacingLeft=4;spacingRight=4;overflow=hidden;rotatable=0;points=[[0,0.5],[1,0.5]];portConstraint=eastwest;rounded=1;shadow=0;glass=0;labelBackgroundColor=none;sketch=0;fontFamily=Helvetica;fontSize=12;" parent="IyjPEtuGOCATa7LigKWc-24" vertex="1">
          <mxGeometry y="26" width="140" height="26" as="geometry" />
        </mxCell>
        <mxCell id="IyjPEtuGOCATa7LigKWc-54" value="usAsNumber" style="text;strokeColor=#b85450;fillColor=#f8cecc;align=center;verticalAlign=top;spacingLeft=4;spacingRight=4;overflow=hidden;rotatable=0;points=[[0,0.5],[1,0.5]];portConstraint=eastwest;rounded=1;shadow=0;glass=0;labelBackgroundColor=none;sketch=0;fontFamily=Helvetica;fontSize=12;" parent="IyjPEtuGOCATa7LigKWc-24" vertex="1">
          <mxGeometry y="52" width="140" height="26" as="geometry" />
        </mxCell>
        <mxCell id="IyjPEtuGOCATa7LigKWc-26" value="astFilterPolicyImport[0]" style="text;strokeColor=default;fillColor=default;align=center;verticalAlign=top;spacingLeft=4;spacingRight=4;overflow=hidden;rotatable=0;points=[[0,0.5],[1,0.5]];portConstraint=eastwest;rounded=1;shadow=0;glass=0;labelBackgroundColor=none;sketch=0;fontFamily=Helvetica;fontSize=12;fontColor=default;" parent="IyjPEtuGOCATa7LigKWc-24" vertex="1">
          <mxGeometry y="78" width="140" height="26" as="geometry" />
        </mxCell>
        <mxCell id="IyjPEtuGOCATa7LigKWc-27" value="..." style="text;strokeColor=none;fillColor=none;align=center;verticalAlign=top;spacingLeft=4;spacingRight=4;overflow=hidden;rotatable=0;points=[[0,0.5],[1,0.5]];portConstraint=eastwest;rounded=1;shadow=0;glass=0;labelBackgroundColor=none;sketch=0;fontFamily=Helvetica;fontSize=12;fontColor=default;" parent="IyjPEtuGOCATa7LigKWc-24" vertex="1">
          <mxGeometry y="104" width="140" height="26" as="geometry" />
        </mxCell>
        <mxCell id="IyjPEtuGOCATa7LigKWc-28" style="edgeStyle=orthogonalEdgeStyle;rounded=0;orthogonalLoop=1;jettySize=auto;html=1;entryX=0;entryY=0.5;entryDx=0;entryDy=0;" parent="IERcaBC9esAp2wqh-j8_-1" source="IyjPEtuGOCATa7LigKWc-7" target="IyjPEtuGOCATa7LigKWc-25" edge="1">
          <mxGeometry relative="1" as="geometry" />
        </mxCell>
        <mxCell id="IyjPEtuGOCATa7LigKWc-29" value="" style="group;rounded=1;shadow=0;glass=0;labelBackgroundColor=none;sketch=0;strokeColor=#d79b00;fillColor=#ffe6cc;gradientDirection=radial;" parent="IERcaBC9esAp2wqh-j8_-1" vertex="1" connectable="0">
          <mxGeometry x="264" y="40" width="360" height="20" as="geometry" />
        </mxCell>
        <mxCell id="IyjPEtuGOCATa7LigKWc-30" value="0" style="rounded=0;whiteSpace=wrap;html=1;shadow=0;glass=0;sketch=0;labelBackgroundColor=none;strokeColor=#d79b00;fillColor=#ffe6cc;" parent="IyjPEtuGOCATa7LigKWc-29" vertex="1">
          <mxGeometry width="60" height="20" as="geometry" />
        </mxCell>
        <mxCell id="IyjPEtuGOCATa7LigKWc-31" value="1" style="rounded=0;whiteSpace=wrap;html=1;shadow=0;glass=0;sketch=0;labelBackgroundColor=none;strokeColor=#d79b00;fillColor=#ffe6cc;" parent="IyjPEtuGOCATa7LigKWc-29" vertex="1">
          <mxGeometry x="60" width="60" height="20" as="geometry" />
        </mxCell>
        <mxCell id="IyjPEtuGOCATa7LigKWc-32" value="..." style="rounded=0;whiteSpace=wrap;html=1;shadow=0;glass=0;sketch=0;labelBackgroundColor=none;strokeColor=#d79b00;fillColor=#ffe6cc;" parent="IyjPEtuGOCATa7LigKWc-29" vertex="1">
          <mxGeometry x="120" width="60" height="20" as="geometry" />
        </mxCell>
        <mxCell id="IyjPEtuGOCATa7LigKWc-33" value="" style="rounded=0;whiteSpace=wrap;html=1;shadow=0;glass=0;sketch=0;labelBackgroundColor=none;strokeColor=#d79b00;fillColor=#ffe6cc;" parent="IyjPEtuGOCATa7LigKWc-29" vertex="1">
          <mxGeometry x="180" width="60" height="20" as="geometry" />
        </mxCell>
        <mxCell id="IyjPEtuGOCATa7LigKWc-34" value="" style="rounded=0;whiteSpace=wrap;html=1;shadow=0;glass=0;sketch=0;labelBackgroundColor=none;strokeColor=#d79b00;fillColor=#ffe6cc;" parent="IyjPEtuGOCATa7LigKWc-29" vertex="1">
          <mxGeometry x="240" width="60" height="20" as="geometry" />
        </mxCell>
        <mxCell id="IyjPEtuGOCATa7LigKWc-35" value="max" style="rounded=0;whiteSpace=wrap;html=1;shadow=0;glass=0;sketch=0;labelBackgroundColor=none;strokeColor=#d79b00;fillColor=#ffe6cc;" parent="IyjPEtuGOCATa7LigKWc-29" vertex="1">
          <mxGeometry x="300" width="60" height="20" as="geometry" />
        </mxCell>
        <mxCell id="IyjPEtuGOCATa7LigKWc-36" style="edgeStyle=orthogonalEdgeStyle;rounded=0;orthogonalLoop=1;jettySize=auto;html=1;exitX=1;exitY=0.5;exitDx=0;exitDy=0;entryX=0;entryY=0.5;entryDx=0;entryDy=0;" parent="IERcaBC9esAp2wqh-j8_-1" source="IyjPEtuGOCATa7LigKWc-5" target="IyjPEtuGOCATa7LigKWc-30" edge="1">
          <mxGeometry relative="1" as="geometry" />
        </mxCell>
        <mxCell id="IyjPEtuGOCATa7LigKWc-37" value="EIGRP_POLICY_NODE_S" style="swimlane;fontStyle=0;childLayout=stackLayout;horizontal=1;startSize=26;fillColor=none;horizontalStack=0;resizeParent=1;resizeParentMax=0;resizeLast=0;collapsible=1;marginBottom=0;rounded=1;shadow=0;glass=0;labelBackgroundColor=none;sketch=0;fontFamily=Helvetica;fontSize=11;fontColor=default;strokeColor=default;" parent="IERcaBC9esAp2wqh-j8_-1" vertex="1">
          <mxGeometry x="264" y="112" width="140" height="104" as="geometry" />
        </mxCell>
        <mxCell id="IyjPEtuGOCATa7LigKWc-38" value="stHashNode" style="text;strokeColor=#d79b00;fillColor=#ffe6cc;align=center;verticalAlign=top;spacingLeft=4;spacingRight=4;overflow=hidden;rotatable=0;points=[[0,0.5],[1,0.5]];portConstraint=eastwest;rounded=1;shadow=0;glass=0;labelBackgroundColor=none;sketch=0;fontFamily=Helvetica;fontSize=12;" parent="IyjPEtuGOCATa7LigKWc-37" vertex="1">
          <mxGeometry y="26" width="140" height="26" as="geometry" />
        </mxCell>
        <mxCell id="IyjPEtuGOCATa7LigKWc-39" value="stProcList" style="text;strokeColor=#d6b656;fillColor=#fff2cc;align=center;verticalAlign=top;spacingLeft=4;spacingRight=4;overflow=hidden;rotatable=0;points=[[0,0.5],[1,0.5]];portConstraint=eastwest;rounded=1;shadow=0;glass=0;labelBackgroundColor=none;sketch=0;fontFamily=Helvetica;fontSize=12;" parent="IyjPEtuGOCATa7LigKWc-37" vertex="1">
          <mxGeometry y="52" width="140" height="26" as="geometry" />
        </mxCell>
        <mxCell id="IyjPEtuGOCATa7LigKWc-40" value="..." style="text;strokeColor=none;fillColor=none;align=center;verticalAlign=top;spacingLeft=4;spacingRight=4;overflow=hidden;rotatable=0;points=[[0,0.5],[1,0.5]];portConstraint=eastwest;rounded=1;shadow=0;glass=0;labelBackgroundColor=none;sketch=0;fontFamily=Helvetica;fontSize=12;fontColor=default;" parent="IyjPEtuGOCATa7LigKWc-37" vertex="1">
          <mxGeometry y="78" width="140" height="26" as="geometry" />
        </mxCell>
        <mxCell id="IyjPEtuGOCATa7LigKWc-41" value="EIGRP_POLICY_PROC_NODE_S" style="swimlane;fontStyle=0;childLayout=stackLayout;horizontal=1;startSize=26;fillColor=none;horizontalStack=0;resizeParent=1;resizeParentMax=0;resizeLast=0;collapsible=1;marginBottom=0;rounded=1;shadow=0;glass=0;labelBackgroundColor=none;sketch=0;fontFamily=Helvetica;fontSize=8;fontColor=default;strokeColor=default;" parent="IERcaBC9esAp2wqh-j8_-1" vertex="1">
          <mxGeometry x="454" y="150" width="140" height="130" as="geometry" />
        </mxCell>
        <mxCell id="IyjPEtuGOCATa7LigKWc-42" value="stNode" style="text;strokeColor=#d6b656;fillColor=#fff2cc;align=center;verticalAlign=top;spacingLeft=4;spacingRight=4;overflow=hidden;rotatable=0;points=[[0,0.5],[1,0.5]];portConstraint=eastwest;rounded=1;shadow=0;glass=0;labelBackgroundColor=none;sketch=0;fontFamily=Helvetica;fontSize=12;" parent="IyjPEtuGOCATa7LigKWc-41" vertex="1">
          <mxGeometry y="26" width="140" height="26" as="geometry" />
        </mxCell>
        <mxCell id="IyjPEtuGOCATa7LigKWc-43" value="usAsNumber" style="text;strokeColor=#b85450;fillColor=#f8cecc;align=center;verticalAlign=top;spacingLeft=4;spacingRight=4;overflow=hidden;rotatable=0;points=[[0,0.5],[1,0.5]];portConstraint=eastwest;rounded=1;shadow=0;glass=0;labelBackgroundColor=none;sketch=0;fontFamily=Helvetica;fontSize=12;" parent="IyjPEtuGOCATa7LigKWc-41" vertex="1">
          <mxGeometry y="52" width="140" height="26" as="geometry" />
        </mxCell>
        <mxCell id="IyjPEtuGOCATa7LigKWc-52" value="auiTrigRef" style="text;strokeColor=default;fillColor=default;align=center;verticalAlign=top;spacingLeft=4;spacingRight=4;overflow=hidden;rotatable=0;points=[[0,0.5],[1,0.5]];portConstraint=eastwest;rounded=1;shadow=0;glass=0;labelBackgroundColor=none;sketch=0;fontFamily=Helvetica;fontSize=12;fontColor=default;" parent="IyjPEtuGOCATa7LigKWc-41" vertex="1">
          <mxGeometry y="78" width="140" height="26" as="geometry" />
        </mxCell>
        <mxCell id="IyjPEtuGOCATa7LigKWc-44" value="..." style="text;strokeColor=none;fillColor=none;align=center;verticalAlign=top;spacingLeft=4;spacingRight=4;overflow=hidden;rotatable=0;points=[[0,0.5],[1,0.5]];portConstraint=eastwest;rounded=1;shadow=0;glass=0;labelBackgroundColor=none;sketch=0;fontFamily=Helvetica;fontSize=12;fontColor=default;" parent="IyjPEtuGOCATa7LigKWc-41" vertex="1">
          <mxGeometry y="104" width="140" height="26" as="geometry" />
        </mxCell>
        <mxCell id="IyjPEtuGOCATa7LigKWc-45" style="edgeStyle=orthogonalEdgeStyle;rounded=0;orthogonalLoop=1;jettySize=auto;html=1;exitX=1;exitY=0.5;exitDx=0;exitDy=0;entryX=0;entryY=0.5;entryDx=0;entryDy=0;fontSize=8;startArrow=classic;startFill=1;" parent="IERcaBC9esAp2wqh-j8_-1" source="IyjPEtuGOCATa7LigKWc-39" target="IyjPEtuGOCATa7LigKWc-42" edge="1">
          <mxGeometry relative="1" as="geometry" />
        </mxCell>
        <mxCell id="IyjPEtuGOCATa7LigKWc-46" value="EIGRP_POLICY_PROC_NODE_S" style="swimlane;fontStyle=0;childLayout=stackLayout;horizontal=1;startSize=26;fillColor=none;horizontalStack=0;resizeParent=1;resizeParentMax=0;resizeLast=0;collapsible=1;marginBottom=0;rounded=1;shadow=0;glass=0;labelBackgroundColor=none;sketch=0;fontFamily=Helvetica;fontSize=8;fontColor=default;strokeColor=default;" parent="IERcaBC9esAp2wqh-j8_-1" vertex="1">
          <mxGeometry x="634" y="150" width="140" height="130" as="geometry" />
        </mxCell>
        <mxCell id="IyjPEtuGOCATa7LigKWc-47" value="stNode" style="text;strokeColor=#d6b656;fillColor=#fff2cc;align=center;verticalAlign=top;spacingLeft=4;spacingRight=4;overflow=hidden;rotatable=0;points=[[0,0.5],[1,0.5]];portConstraint=eastwest;rounded=1;shadow=0;glass=0;labelBackgroundColor=none;sketch=0;fontFamily=Helvetica;fontSize=12;" parent="IyjPEtuGOCATa7LigKWc-46" vertex="1">
          <mxGeometry y="26" width="140" height="26" as="geometry" />
        </mxCell>
        <mxCell id="IyjPEtuGOCATa7LigKWc-48" value="usAsNumber" style="text;strokeColor=#b85450;fillColor=#f8cecc;align=center;verticalAlign=top;spacingLeft=4;spacingRight=4;overflow=hidden;rotatable=0;points=[[0,0.5],[1,0.5]];portConstraint=eastwest;rounded=1;shadow=0;glass=0;labelBackgroundColor=none;sketch=0;fontFamily=Helvetica;fontSize=12;" parent="IyjPEtuGOCATa7LigKWc-46" vertex="1">
          <mxGeometry y="52" width="140" height="26" as="geometry" />
        </mxCell>
        <mxCell id="IyjPEtuGOCATa7LigKWc-53" value="auiTrigRef" style="text;strokeColor=default;fillColor=default;align=center;verticalAlign=top;spacingLeft=4;spacingRight=4;overflow=hidden;rotatable=0;points=[[0,0.5],[1,0.5]];portConstraint=eastwest;rounded=1;shadow=0;glass=0;labelBackgroundColor=none;sketch=0;fontFamily=Helvetica;fontSize=12;fontColor=default;" parent="IyjPEtuGOCATa7LigKWc-46" vertex="1">
          <mxGeometry y="78" width="140" height="26" as="geometry" />
        </mxCell>
        <mxCell id="IyjPEtuGOCATa7LigKWc-49" value="..." style="text;strokeColor=none;fillColor=none;align=center;verticalAlign=top;spacingLeft=4;spacingRight=4;overflow=hidden;rotatable=0;points=[[0,0.5],[1,0.5]];portConstraint=eastwest;rounded=1;shadow=0;glass=0;labelBackgroundColor=none;sketch=0;fontFamily=Helvetica;fontSize=12;fontColor=default;" parent="IyjPEtuGOCATa7LigKWc-46" vertex="1">
          <mxGeometry y="104" width="140" height="26" as="geometry" />
        </mxCell>
        <mxCell id="IyjPEtuGOCATa7LigKWc-50" style="edgeStyle=orthogonalEdgeStyle;rounded=0;orthogonalLoop=1;jettySize=auto;html=1;exitX=1;exitY=0.5;exitDx=0;exitDy=0;entryX=0;entryY=0.5;entryDx=0;entryDy=0;fontSize=8;startArrow=classic;startFill=1;" parent="IERcaBC9esAp2wqh-j8_-1" source="IyjPEtuGOCATa7LigKWc-42" target="IyjPEtuGOCATa7LigKWc-47" edge="1">
          <mxGeometry relative="1" as="geometry" />
        </mxCell>
        <mxCell id="IyjPEtuGOCATa7LigKWc-51" style="edgeStyle=orthogonalEdgeStyle;rounded=0;orthogonalLoop=1;jettySize=auto;html=1;exitX=0.5;exitY=1;exitDx=0;exitDy=0;entryX=0.25;entryY=0;entryDx=0;entryDy=0;fontSize=8;startArrow=none;startFill=0;" parent="IERcaBC9esAp2wqh-j8_-1" source="IyjPEtuGOCATa7LigKWc-30" target="IyjPEtuGOCATa7LigKWc-37" edge="1">
          <mxGeometry relative="1" as="geometry" />
        </mxCell>
        <mxCell id="IyjPEtuGOCATa7LigKWc-55" style="edgeStyle=orthogonalEdgeStyle;rounded=0;orthogonalLoop=1;jettySize=auto;html=1;entryX=1;entryY=0.5;entryDx=0;entryDy=0;fontSize=11;startArrow=classic;startFill=1;" parent="IERcaBC9esAp2wqh-j8_-1" source="IyjPEtuGOCATa7LigKWc-54" target="IyjPEtuGOCATa7LigKWc-46" edge="1">
          <mxGeometry relative="1" as="geometry" />
        </mxCell>
        <mxCell id="IyjPEtuGOCATa7LigKWc-57" value="&lt;span style=&quot;font-size: 12px&quot;&gt;usAsNumber&lt;/span&gt;" style="text;html=1;resizable=0;autosize=1;align=center;verticalAlign=middle;points=[];fillColor=none;strokeColor=none;rounded=0;fontSize=11;" parent="IERcaBC9esAp2wqh-j8_-1" vertex="1">
          <mxGeometry x="274" y="330" width="80" height="20" as="geometry" />
        </mxCell>
        <mxCell id="IyjPEtuGOCATa7LigKWc-58" value="" style="edgeStyle=orthogonalEdgeStyle;rounded=0;orthogonalLoop=1;jettySize=auto;html=1;exitX=0.5;exitY=1;exitDx=0;exitDy=0;entryX=0.5;entryY=0;entryDx=0;entryDy=0;endArrow=none;" parent="IERcaBC9esAp2wqh-j8_-1" source="IyjPEtuGOCATa7LigKWc-12" target="IyjPEtuGOCATa7LigKWc-57" edge="1">
          <mxGeometry relative="1" as="geometry">
            <mxPoint x="314" y="320" as="sourcePoint" />
            <mxPoint x="314" y="380" as="targetPoint" />
          </mxGeometry>
        </mxCell>
      </root>
    </mxGraphModel>
  </diagram>
</mxfile>
